<mxfile host="app.diagrams.net" modified="2024-05-28T08:13:16.168Z" agent="Mozilla/5.0 (Windows NT 10.0; Win64; x64) AppleWebKit/537.36 (KHTML, like Gecko) Chrome/125.0.0.0 Safari/537.36 Edg/125.0.0.0" etag="QoJFbFSxiSaSFqN5vnfY" version="24.4.9" type="device">
  <diagram id="3FM4Ts7zy2v4HSRmvazU" name="Page-1">
    <mxGraphModel dx="794" dy="509" grid="1" gridSize="10" guides="1" tooltips="1" connect="1" arrows="1" fold="1" page="1" pageScale="1" pageWidth="827" pageHeight="1169" math="0" shadow="0">
      <root>
        <mxCell id="0" />
        <mxCell id="1" parent="0" />
        <mxCell id="G7PKdQC7UyPGDUOadVF0-1" value="Eleve" style="rounded=1;whiteSpace=wrap;html=1;" parent="1" vertex="1">
          <mxGeometry x="60" y="150" width="120" height="60" as="geometry" />
        </mxCell>
        <mxCell id="G7PKdQC7UyPGDUOadVF0-2" value="Professeur" style="rounded=1;whiteSpace=wrap;html=1;" parent="1" vertex="1">
          <mxGeometry x="540" y="150" width="120" height="60" as="geometry" />
        </mxCell>
        <mxCell id="G7PKdQC7UyPGDUOadVF0-3" value="Prof.principlal=prof" style="rounded=1;whiteSpace=wrap;html=1;" parent="1" vertex="1">
          <mxGeometry x="610" y="240" width="120" height="60" as="geometry" />
        </mxCell>
        <mxCell id="G7PKdQC7UyPGDUOadVF0-4" value="Classe" style="rounded=1;whiteSpace=wrap;html=1;" parent="1" vertex="1">
          <mxGeometry x="300" y="150" width="120" height="60" as="geometry" />
        </mxCell>
        <mxCell id="G7PKdQC7UyPGDUOadVF0-5" value="Matière" style="rounded=1;whiteSpace=wrap;html=1;" parent="1" vertex="1">
          <mxGeometry x="300" y="260" width="120" height="60" as="geometry" />
        </mxCell>
        <mxCell id="G7PKdQC7UyPGDUOadVF0-6" value="Cours" style="rounded=1;whiteSpace=wrap;html=1;" parent="1" vertex="1">
          <mxGeometry x="300" y="360" width="120" height="60" as="geometry" />
        </mxCell>
        <mxCell id="G7PKdQC7UyPGDUOadVF0-7" value="Emploi du temps" style="rounded=1;whiteSpace=wrap;html=1;" parent="1" vertex="1">
          <mxGeometry x="300" y="460" width="120" height="60" as="geometry" />
        </mxCell>
        <mxCell id="G7PKdQC7UyPGDUOadVF0-8" value="Bulletins" style="rounded=1;whiteSpace=wrap;html=1;" parent="1" vertex="1">
          <mxGeometry x="300" y="555" width="120" height="60" as="geometry" />
        </mxCell>
        <mxCell id="G7PKdQC7UyPGDUOadVF0-9" value="Conseil de classe" style="rounded=1;whiteSpace=wrap;html=1;" parent="1" vertex="1">
          <mxGeometry x="300" y="660" width="120" height="60" as="geometry" />
        </mxCell>
        <mxCell id="G7PKdQC7UyPGDUOadVF0-10" value="&lt;font&gt;&lt;u&gt;Diagramme de classe (partie2)&lt;/u&gt;&lt;/font&gt;&lt;div&gt;&lt;u&gt;Cardinalités&lt;/u&gt;&lt;/div&gt;" style="text;align=center;fontStyle=1;verticalAlign=middle;spacingLeft=3;spacingRight=3;strokeColor=none;rotatable=0;points=[[0,0.5],[1,0.5]];portConstraint=eastwest;html=1;" parent="1" vertex="1">
          <mxGeometry x="260" y="50" width="190" height="80" as="geometry" />
        </mxCell>
        <mxCell id="G7PKdQC7UyPGDUOadVF0-11" value="" style="endArrow=open;html=1;endSize=12;startArrow=diamondThin;startSize=14;startFill=0;edgeStyle=orthogonalEdgeStyle;rounded=0;entryX=0;entryY=0.5;entryDx=0;entryDy=0;" parent="1" target="G7PKdQC7UyPGDUOadVF0-4" edge="1">
          <mxGeometry relative="1" as="geometry">
            <mxPoint x="180" y="180" as="sourcePoint" />
            <mxPoint x="340" y="180" as="targetPoint" />
          </mxGeometry>
        </mxCell>
        <mxCell id="G7PKdQC7UyPGDUOadVF0-12" value="1-n" style="edgeLabel;resizable=0;html=1;align=left;verticalAlign=top;" parent="G7PKdQC7UyPGDUOadVF0-11" connectable="0" vertex="1">
          <mxGeometry x="-1" relative="1" as="geometry">
            <mxPoint x="10" as="offset" />
          </mxGeometry>
        </mxCell>
        <mxCell id="G7PKdQC7UyPGDUOadVF0-13" value="1-n" style="edgeLabel;resizable=0;html=1;align=right;verticalAlign=top;" parent="G7PKdQC7UyPGDUOadVF0-11" connectable="0" vertex="1">
          <mxGeometry x="1" relative="1" as="geometry">
            <mxPoint x="-10" as="offset" />
          </mxGeometry>
        </mxCell>
        <mxCell id="wXwLW4L91MvohHg7rXFi-1" value="inscrit" style="edgeLabel;html=1;align=center;verticalAlign=middle;resizable=0;points=[];" vertex="1" connectable="0" parent="G7PKdQC7UyPGDUOadVF0-11">
          <mxGeometry x="-0.0261" y="-2" relative="1" as="geometry">
            <mxPoint as="offset" />
          </mxGeometry>
        </mxCell>
        <mxCell id="G7PKdQC7UyPGDUOadVF0-14" value="" style="endArrow=open;html=1;endSize=12;startArrow=diamondThin;startSize=14;startFill=0;edgeStyle=orthogonalEdgeStyle;rounded=0;entryX=1;entryY=0.5;entryDx=0;entryDy=0;" parent="1" target="G7PKdQC7UyPGDUOadVF0-4" edge="1">
          <mxGeometry relative="1" as="geometry">
            <mxPoint x="540" y="180" as="sourcePoint" />
            <mxPoint x="700" y="180" as="targetPoint" />
          </mxGeometry>
        </mxCell>
        <mxCell id="G7PKdQC7UyPGDUOadVF0-15" value="1-n" style="edgeLabel;resizable=0;html=1;align=left;verticalAlign=top;" parent="G7PKdQC7UyPGDUOadVF0-14" connectable="0" vertex="1">
          <mxGeometry x="-1" relative="1" as="geometry">
            <mxPoint x="-30" as="offset" />
          </mxGeometry>
        </mxCell>
        <mxCell id="G7PKdQC7UyPGDUOadVF0-16" value="1-n" style="edgeLabel;resizable=0;html=1;align=right;verticalAlign=top;" parent="G7PKdQC7UyPGDUOadVF0-14" connectable="0" vertex="1">
          <mxGeometry x="1" relative="1" as="geometry">
            <mxPoint x="31" as="offset" />
          </mxGeometry>
        </mxCell>
        <mxCell id="wXwLW4L91MvohHg7rXFi-2" value="ua" style="edgeLabel;html=1;align=center;verticalAlign=middle;resizable=0;points=[];" vertex="1" connectable="0" parent="G7PKdQC7UyPGDUOadVF0-14">
          <mxGeometry x="-0.0319" relative="1" as="geometry">
            <mxPoint as="offset" />
          </mxGeometry>
        </mxCell>
        <mxCell id="wXwLW4L91MvohHg7rXFi-3" value="a" style="edgeLabel;html=1;align=center;verticalAlign=middle;resizable=0;points=[];" vertex="1" connectable="0" parent="G7PKdQC7UyPGDUOadVF0-14">
          <mxGeometry x="-0.0487" y="-2" relative="1" as="geometry">
            <mxPoint as="offset" />
          </mxGeometry>
        </mxCell>
        <mxCell id="G7PKdQC7UyPGDUOadVF0-17" value="" style="endArrow=open;html=1;endSize=12;startArrow=diamondThin;startSize=14;startFill=0;edgeStyle=orthogonalEdgeStyle;rounded=0;" parent="1" edge="1">
          <mxGeometry relative="1" as="geometry">
            <mxPoint x="140" y="290" as="sourcePoint" />
            <mxPoint x="300" y="290" as="targetPoint" />
          </mxGeometry>
        </mxCell>
        <mxCell id="G7PKdQC7UyPGDUOadVF0-18" value="1-n" style="edgeLabel;resizable=0;html=1;align=left;verticalAlign=top;" parent="G7PKdQC7UyPGDUOadVF0-17" connectable="0" vertex="1">
          <mxGeometry x="-1" relative="1" as="geometry">
            <mxPoint x="20" as="offset" />
          </mxGeometry>
        </mxCell>
        <mxCell id="G7PKdQC7UyPGDUOadVF0-19" value="1-n" style="edgeLabel;resizable=0;html=1;align=right;verticalAlign=top;" parent="G7PKdQC7UyPGDUOadVF0-17" connectable="0" vertex="1">
          <mxGeometry x="1" relative="1" as="geometry">
            <mxPoint x="-20" as="offset" />
          </mxGeometry>
        </mxCell>
        <mxCell id="wXwLW4L91MvohHg7rXFi-8" value="apprend" style="edgeLabel;html=1;align=center;verticalAlign=middle;resizable=0;points=[];" vertex="1" connectable="0" parent="G7PKdQC7UyPGDUOadVF0-17">
          <mxGeometry x="0.0083" y="-2" relative="1" as="geometry">
            <mxPoint as="offset" />
          </mxGeometry>
        </mxCell>
        <mxCell id="G7PKdQC7UyPGDUOadVF0-20" value="" style="endArrow=open;html=1;endSize=12;startArrow=diamondThin;startSize=14;startFill=0;edgeStyle=orthogonalEdgeStyle;rounded=0;" parent="1" edge="1">
          <mxGeometry relative="1" as="geometry">
            <mxPoint x="140" y="390" as="sourcePoint" />
            <mxPoint x="300" y="390" as="targetPoint" />
          </mxGeometry>
        </mxCell>
        <mxCell id="G7PKdQC7UyPGDUOadVF0-21" value="1-n" style="edgeLabel;resizable=0;html=1;align=left;verticalAlign=top;" parent="G7PKdQC7UyPGDUOadVF0-20" connectable="0" vertex="1">
          <mxGeometry x="-1" relative="1" as="geometry">
            <mxPoint x="20" as="offset" />
          </mxGeometry>
        </mxCell>
        <mxCell id="G7PKdQC7UyPGDUOadVF0-22" value="1-n" style="edgeLabel;resizable=0;html=1;align=right;verticalAlign=top;" parent="G7PKdQC7UyPGDUOadVF0-20" connectable="0" vertex="1">
          <mxGeometry x="1" relative="1" as="geometry">
            <mxPoint x="-20" as="offset" />
          </mxGeometry>
        </mxCell>
        <mxCell id="wXwLW4L91MvohHg7rXFi-9" value="suit" style="edgeLabel;html=1;align=center;verticalAlign=middle;resizable=0;points=[];" vertex="1" connectable="0" parent="G7PKdQC7UyPGDUOadVF0-20">
          <mxGeometry x="-0.0167" relative="1" as="geometry">
            <mxPoint as="offset" />
          </mxGeometry>
        </mxCell>
        <mxCell id="G7PKdQC7UyPGDUOadVF0-23" value="" style="endArrow=open;html=1;endSize=12;startArrow=diamondThin;startSize=14;startFill=0;edgeStyle=orthogonalEdgeStyle;rounded=0;" parent="1" edge="1">
          <mxGeometry relative="1" as="geometry">
            <mxPoint x="140" y="490" as="sourcePoint" />
            <mxPoint x="300" y="490" as="targetPoint" />
          </mxGeometry>
        </mxCell>
        <mxCell id="G7PKdQC7UyPGDUOadVF0-24" value="1-n" style="edgeLabel;resizable=0;html=1;align=left;verticalAlign=top;" parent="G7PKdQC7UyPGDUOadVF0-23" connectable="0" vertex="1">
          <mxGeometry x="-1" relative="1" as="geometry">
            <mxPoint x="20" as="offset" />
          </mxGeometry>
        </mxCell>
        <mxCell id="G7PKdQC7UyPGDUOadVF0-25" value="1-n" style="edgeLabel;resizable=0;html=1;align=right;verticalAlign=top;" parent="G7PKdQC7UyPGDUOadVF0-23" connectable="0" vertex="1">
          <mxGeometry x="1" relative="1" as="geometry">
            <mxPoint x="-20" as="offset" />
          </mxGeometry>
        </mxCell>
        <mxCell id="wXwLW4L91MvohHg7rXFi-11" value="a un" style="edgeLabel;html=1;align=center;verticalAlign=middle;resizable=0;points=[];" vertex="1" connectable="0" parent="G7PKdQC7UyPGDUOadVF0-23">
          <mxGeometry x="-0.0667" y="-1" relative="1" as="geometry">
            <mxPoint as="offset" />
          </mxGeometry>
        </mxCell>
        <mxCell id="G7PKdQC7UyPGDUOadVF0-26" value="" style="endArrow=open;html=1;endSize=12;startArrow=diamondThin;startSize=14;startFill=0;edgeStyle=orthogonalEdgeStyle;rounded=0;" parent="1" edge="1">
          <mxGeometry relative="1" as="geometry">
            <mxPoint x="140" y="580" as="sourcePoint" />
            <mxPoint x="300" y="580" as="targetPoint" />
          </mxGeometry>
        </mxCell>
        <mxCell id="G7PKdQC7UyPGDUOadVF0-27" value="1-n" style="edgeLabel;resizable=0;html=1;align=left;verticalAlign=top;" parent="G7PKdQC7UyPGDUOadVF0-26" connectable="0" vertex="1">
          <mxGeometry x="-1" relative="1" as="geometry">
            <mxPoint x="20" y="5" as="offset" />
          </mxGeometry>
        </mxCell>
        <mxCell id="G7PKdQC7UyPGDUOadVF0-28" value="1-n" style="edgeLabel;resizable=0;html=1;align=right;verticalAlign=top;" parent="G7PKdQC7UyPGDUOadVF0-26" connectable="0" vertex="1">
          <mxGeometry x="1" relative="1" as="geometry">
            <mxPoint x="-20" y="5" as="offset" />
          </mxGeometry>
        </mxCell>
        <mxCell id="wXwLW4L91MvohHg7rXFi-13" value="un/plusieur" style="edgeLabel;html=1;align=center;verticalAlign=middle;resizable=0;points=[];" vertex="1" connectable="0" parent="G7PKdQC7UyPGDUOadVF0-26">
          <mxGeometry x="-0.0667" relative="1" as="geometry">
            <mxPoint as="offset" />
          </mxGeometry>
        </mxCell>
        <mxCell id="G7PKdQC7UyPGDUOadVF0-29" value="" style="endArrow=open;html=1;endSize=12;startArrow=diamondThin;startSize=14;startFill=0;edgeStyle=orthogonalEdgeStyle;rounded=0;" parent="1" edge="1">
          <mxGeometry relative="1" as="geometry">
            <mxPoint x="140" y="690" as="sourcePoint" />
            <mxPoint x="300" y="690" as="targetPoint" />
          </mxGeometry>
        </mxCell>
        <mxCell id="G7PKdQC7UyPGDUOadVF0-30" value="1-n" style="edgeLabel;resizable=0;html=1;align=left;verticalAlign=top;" parent="G7PKdQC7UyPGDUOadVF0-29" connectable="0" vertex="1">
          <mxGeometry x="-1" relative="1" as="geometry">
            <mxPoint x="20" as="offset" />
          </mxGeometry>
        </mxCell>
        <mxCell id="G7PKdQC7UyPGDUOadVF0-31" value="1-n" style="edgeLabel;resizable=0;html=1;align=right;verticalAlign=top;" parent="G7PKdQC7UyPGDUOadVF0-29" connectable="0" vertex="1">
          <mxGeometry x="1" relative="1" as="geometry">
            <mxPoint x="-20" as="offset" />
          </mxGeometry>
        </mxCell>
        <mxCell id="G7PKdQC7UyPGDUOadVF0-32" value="" style="endArrow=open;html=1;endSize=12;startArrow=diamondThin;startSize=14;startFill=0;edgeStyle=orthogonalEdgeStyle;rounded=0;entryX=1;entryY=0.5;entryDx=0;entryDy=0;" parent="1" target="G7PKdQC7UyPGDUOadVF0-5" edge="1">
          <mxGeometry relative="1" as="geometry">
            <mxPoint x="580" y="290" as="sourcePoint" />
            <mxPoint x="740" y="290" as="targetPoint" />
          </mxGeometry>
        </mxCell>
        <mxCell id="G7PKdQC7UyPGDUOadVF0-33" value="1-n" style="edgeLabel;resizable=0;html=1;align=left;verticalAlign=top;" parent="G7PKdQC7UyPGDUOadVF0-32" connectable="0" vertex="1">
          <mxGeometry x="-1" relative="1" as="geometry">
            <mxPoint x="-40" as="offset" />
          </mxGeometry>
        </mxCell>
        <mxCell id="G7PKdQC7UyPGDUOadVF0-34" value="1-n" style="edgeLabel;resizable=0;html=1;align=right;verticalAlign=top;" parent="G7PKdQC7UyPGDUOadVF0-32" connectable="0" vertex="1">
          <mxGeometry x="1" relative="1" as="geometry">
            <mxPoint x="41" as="offset" />
          </mxGeometry>
        </mxCell>
        <mxCell id="wXwLW4L91MvohHg7rXFi-4" value="enseigne" style="edgeLabel;html=1;align=center;verticalAlign=middle;resizable=0;points=[];" vertex="1" connectable="0" parent="G7PKdQC7UyPGDUOadVF0-32">
          <mxGeometry x="0.0447" relative="1" as="geometry">
            <mxPoint as="offset" />
          </mxGeometry>
        </mxCell>
        <mxCell id="G7PKdQC7UyPGDUOadVF0-35" value="" style="endArrow=open;html=1;endSize=12;startArrow=diamondThin;startSize=14;startFill=0;edgeStyle=orthogonalEdgeStyle;rounded=0;entryX=1;entryY=0.5;entryDx=0;entryDy=0;" parent="1" target="G7PKdQC7UyPGDUOadVF0-6" edge="1">
          <mxGeometry relative="1" as="geometry">
            <mxPoint x="580" y="390" as="sourcePoint" />
            <mxPoint x="740" y="390" as="targetPoint" />
          </mxGeometry>
        </mxCell>
        <mxCell id="G7PKdQC7UyPGDUOadVF0-36" value="1-n" style="edgeLabel;resizable=0;html=1;align=left;verticalAlign=top;" parent="G7PKdQC7UyPGDUOadVF0-35" connectable="0" vertex="1">
          <mxGeometry x="-1" relative="1" as="geometry">
            <mxPoint x="-40" as="offset" />
          </mxGeometry>
        </mxCell>
        <mxCell id="G7PKdQC7UyPGDUOadVF0-37" value="1-n" style="edgeLabel;resizable=0;html=1;align=right;verticalAlign=top;" parent="G7PKdQC7UyPGDUOadVF0-35" connectable="0" vertex="1">
          <mxGeometry x="1" relative="1" as="geometry">
            <mxPoint x="41" as="offset" />
          </mxGeometry>
        </mxCell>
        <mxCell id="wXwLW4L91MvohHg7rXFi-10" value="donne" style="edgeLabel;html=1;align=center;verticalAlign=middle;resizable=0;points=[];" vertex="1" connectable="0" parent="G7PKdQC7UyPGDUOadVF0-35">
          <mxGeometry x="0.1194" y="4" relative="1" as="geometry">
            <mxPoint as="offset" />
          </mxGeometry>
        </mxCell>
        <mxCell id="G7PKdQC7UyPGDUOadVF0-38" value="" style="endArrow=open;html=1;endSize=12;startArrow=diamondThin;startSize=14;startFill=0;edgeStyle=orthogonalEdgeStyle;rounded=0;entryX=1;entryY=0.5;entryDx=0;entryDy=0;" parent="1" target="G7PKdQC7UyPGDUOadVF0-7" edge="1">
          <mxGeometry relative="1" as="geometry">
            <mxPoint x="580" y="490" as="sourcePoint" />
            <mxPoint x="740" y="490" as="targetPoint" />
          </mxGeometry>
        </mxCell>
        <mxCell id="G7PKdQC7UyPGDUOadVF0-39" value="1-n" style="edgeLabel;resizable=0;html=1;align=left;verticalAlign=top;" parent="G7PKdQC7UyPGDUOadVF0-38" connectable="0" vertex="1">
          <mxGeometry x="-1" relative="1" as="geometry">
            <mxPoint x="-40" as="offset" />
          </mxGeometry>
        </mxCell>
        <mxCell id="G7PKdQC7UyPGDUOadVF0-40" value="1-n" style="edgeLabel;resizable=0;html=1;align=right;verticalAlign=top;" parent="G7PKdQC7UyPGDUOadVF0-38" connectable="0" vertex="1">
          <mxGeometry x="1" relative="1" as="geometry">
            <mxPoint x="41" as="offset" />
          </mxGeometry>
        </mxCell>
        <mxCell id="wXwLW4L91MvohHg7rXFi-12" value="a un&lt;div&gt;&lt;br&gt;&lt;/div&gt;" style="edgeLabel;html=1;align=center;verticalAlign=middle;resizable=0;points=[];" vertex="1" connectable="0" parent="G7PKdQC7UyPGDUOadVF0-38">
          <mxGeometry x="0.0945" y="2" relative="1" as="geometry">
            <mxPoint as="offset" />
          </mxGeometry>
        </mxCell>
        <mxCell id="G7PKdQC7UyPGDUOadVF0-41" value="" style="endArrow=open;html=1;endSize=12;startArrow=diamondThin;startSize=14;startFill=0;edgeStyle=orthogonalEdgeStyle;rounded=0;entryX=1;entryY=0.5;entryDx=0;entryDy=0;" parent="1" target="G7PKdQC7UyPGDUOadVF0-9" edge="1">
          <mxGeometry relative="1" as="geometry">
            <mxPoint x="580" y="690" as="sourcePoint" />
            <mxPoint x="740" y="690" as="targetPoint" />
          </mxGeometry>
        </mxCell>
        <mxCell id="G7PKdQC7UyPGDUOadVF0-42" value="1-n" style="edgeLabel;resizable=0;html=1;align=left;verticalAlign=top;" parent="G7PKdQC7UyPGDUOadVF0-41" connectable="0" vertex="1">
          <mxGeometry x="-1" relative="1" as="geometry">
            <mxPoint x="-40" as="offset" />
          </mxGeometry>
        </mxCell>
        <mxCell id="G7PKdQC7UyPGDUOadVF0-43" value="1-n" style="edgeLabel;resizable=0;html=1;align=right;verticalAlign=top;" parent="G7PKdQC7UyPGDUOadVF0-41" connectable="0" vertex="1">
          <mxGeometry x="1" relative="1" as="geometry">
            <mxPoint x="22" as="offset" />
          </mxGeometry>
        </mxCell>
        <mxCell id="G7PKdQC7UyPGDUOadVF0-44" value="" style="endArrow=open;html=1;endSize=12;startArrow=diamondThin;startSize=14;startFill=0;edgeStyle=orthogonalEdgeStyle;rounded=0;entryX=1.067;entryY=0.417;entryDx=0;entryDy=0;entryPerimeter=0;" parent="1" target="G7PKdQC7UyPGDUOadVF0-8" edge="1">
          <mxGeometry relative="1" as="geometry">
            <mxPoint x="580" y="580" as="sourcePoint" />
            <mxPoint x="740" y="580" as="targetPoint" />
          </mxGeometry>
        </mxCell>
        <mxCell id="G7PKdQC7UyPGDUOadVF0-45" value="1-n" style="edgeLabel;resizable=0;html=1;align=left;verticalAlign=top;" parent="G7PKdQC7UyPGDUOadVF0-44" connectable="0" vertex="1">
          <mxGeometry x="-1" relative="1" as="geometry">
            <mxPoint x="-40" as="offset" />
          </mxGeometry>
        </mxCell>
        <mxCell id="G7PKdQC7UyPGDUOadVF0-46" value="1-n" style="edgeLabel;html=1;align=center;verticalAlign=middle;resizable=0;points=[];" parent="G7PKdQC7UyPGDUOadVF0-44" vertex="1" connectable="0">
          <mxGeometry x="0.9437" y="13" relative="1" as="geometry">
            <mxPoint x="17" y="-3" as="offset" />
          </mxGeometry>
        </mxCell>
        <mxCell id="wXwLW4L91MvohHg7rXFi-14" value="un/plusieurs" style="edgeLabel;html=1;align=center;verticalAlign=middle;resizable=0;points=[];" vertex="1" connectable="0" parent="G7PKdQC7UyPGDUOadVF0-44">
          <mxGeometry x="0.1129" y="1" relative="1" as="geometry">
            <mxPoint as="offset" />
          </mxGeometry>
        </mxCell>
        <mxCell id="G7PKdQC7UyPGDUOadVF0-47" value="" style="endArrow=open;html=1;endSize=12;startArrow=diamondThin;startSize=14;startFill=0;edgeStyle=orthogonalEdgeStyle;rounded=0;entryX=0.5;entryY=1;entryDx=0;entryDy=0;" parent="1" target="G7PKdQC7UyPGDUOadVF0-8" edge="1">
          <mxGeometry relative="1" as="geometry">
            <mxPoint x="360" y="660" as="sourcePoint" />
            <mxPoint x="520" y="660" as="targetPoint" />
          </mxGeometry>
        </mxCell>
        <mxCell id="G7PKdQC7UyPGDUOadVF0-48" value="1-n" style="edgeLabel;resizable=0;html=1;align=left;verticalAlign=top;" parent="G7PKdQC7UyPGDUOadVF0-47" connectable="0" vertex="1">
          <mxGeometry x="-1" relative="1" as="geometry">
            <mxPoint x="10" y="-40" as="offset" />
          </mxGeometry>
        </mxCell>
        <mxCell id="G7PKdQC7UyPGDUOadVF0-49" value="1-n" style="edgeLabel;resizable=0;html=1;align=right;verticalAlign=top;" parent="G7PKdQC7UyPGDUOadVF0-47" connectable="0" vertex="1">
          <mxGeometry x="1" relative="1" as="geometry">
            <mxPoint x="-20" y="5" as="offset" />
          </mxGeometry>
        </mxCell>
        <mxCell id="G7PKdQC7UyPGDUOadVF0-51" value="" style="endArrow=none;html=1;rounded=0;" parent="1" edge="1">
          <mxGeometry width="50" height="50" relative="1" as="geometry">
            <mxPoint x="140" y="690" as="sourcePoint" />
            <mxPoint x="140" y="210" as="targetPoint" />
          </mxGeometry>
        </mxCell>
        <mxCell id="G7PKdQC7UyPGDUOadVF0-52" value="" style="endArrow=none;html=1;rounded=0;" parent="1" edge="1">
          <mxGeometry width="50" height="50" relative="1" as="geometry">
            <mxPoint x="580" y="690" as="sourcePoint" />
            <mxPoint x="580" y="210" as="targetPoint" />
          </mxGeometry>
        </mxCell>
      </root>
    </mxGraphModel>
  </diagram>
</mxfile>
